<mxfile host="app.diagrams.net" modified="2024-07-19T22:12:53.143Z" agent="Mozilla/5.0 (Macintosh; Intel Mac OS X 10_15_7) AppleWebKit/537.36 (KHTML, like Gecko) Chrome/126.0.0.0 Safari/537.36" version="24.7.2" etag="F4hTEHqqAmrIrP2jHxTK" type="github">
  <diagram name="Page-1" id="2ss66VnW7H7XMwP6cjuV">
    <mxGraphModel>
      <root>
        <mxCell id="0" />
        <mxCell id="1" parent="0" />
      </root>
    </mxGraphModel>
  </diagram>
</mxfile>
